<?xml version="1.0" encoding="UTF-8"?>
<svg id="Layer_1" data-name="Layer 1" xmlns="http://www.w3.org/2000/svg" viewBox="0 0 3812.88 351.14">
  <defs>
    <style>
      .cls-1 {
        stroke-width: 0px;
      }
    </style>
  </defs>
  <path class="cls-1" d="m3662.06,180.34c11.27-1.23,23.17-2.21,34.34.19,15.81,3.39,33.82,11.24,42.72,25.43,4.58,7.31,6.09,14.11,4.23,22.39-1.19-.26-.71-.06-1.81-.71-14.41-8.49-30.37-12.79-44.84-21.01-12.55-7.12-21.45-17.04-33.09-25.19l-1.56-1.09Z"/>
  <path class="cls-1" d="m114.75,181.64c14.53-1.36,29.6-.61,44.2-.57-24.58,12.58-30.57,28.43-59.51,35.81-11.17,4.55-21.23,11.36-31.43,17.74,1.68-7.32,3.42-14.64,6.76-21.42,8.69-17.66,21.96-25.26,39.98-31.55Z"/>
  <path class="cls-1" d="m3738.13,122.74l4.73-.29,2.29,2.3c.17,1.41.3,2.82.22,4.25-.6,9.28-8.9,19.32-15.51,25.23-18.94,16.93-38.96,18.02-62.93,16.8l-2.05-.62c-.17-4.97,22.81-18.59,25.83-29.02,12.38-3.08,39.63-8.21,47.43-18.65Z"/>
  <path class="cls-1" d="m68.81,118.85c5.4,2.26,10.53,7.04,15.45,10.36,12.97,8.76,26.13,11.23,41.2,13.99,8.94,10.85,18.09,19.5,29.15,28.1-23.36,2.14-47.39,3.16-66.48-12.93-11.67-9.83-17.89-24.62-19.32-39.53Z"/>
  <path class="cls-1" d="m44.6,158.67c19.5-.66,38.38,11.01,56.24,18.06-15.11,5.88-29.38,13.87-45.31,17.45-20.89,1.01-37.77-8.58-55.54-18.1,14.41-6.98,28.83-14.17,44.6-17.41Z"/>
  <path class="cls-1" d="m3750.38,159.22c7.3-1.21,14.95-1.58,22.27-.37,12.05,1.98,32.78,8.03,40.24,18.43-9.2,9.19-27.6,14.68-40.21,16.39-15.01,5.67-46.93-14.02-62.42-18.5,6.97-1.9,13.81-4.19,20.52-6.86,6.7-2.67,13.23-5.7,19.61-9.09Z"/>
  <path class="cls-1" d="m1574.34,99.1c41.11-4.35,68.11,15.46,103.48,31.78,17.29,7.98,35.26,14.38,53.15,20.84-11.94-.71-23.97-.88-35.93-1.3-19.68-1.03-38.69-3.11-57.41-9.52-40.06-13.72-51.47-29.44-98.37-28.84,11.3-6.08,22.63-10.04,35.08-12.96Z"/>
  <path class="cls-1" d="m2210.01,97.77c17.6-1.86,37.13-2.78,53.54,4.86-8.49,3.63-17.69,5.11-26.2,9.16-36.76,17.5-54.1,33.64-96.99,37.29-16.59,1.73-33.56,1.68-50.22,2.23,14.05-7.28,29.01-13.04,43.33-19.8,25.23-11.88,49.83-25.51,76.54-33.75Z"/>
  <path class="cls-1" d="m1685.38,199.7c16.7-1.85,33.98-1.54,50.79-2-19.52,6.4-39.21,12.67-58,21.03-29.79,13.25-56.7,29.91-89.12,35.99-20.31.39-33.63-4.51-51.32-13.66,56.19.28,62.12-24.13,107.32-37.45,12.45-3.67,27.41-3.22,40.34-3.91Z"/>
  <path class="cls-1" d="m1804.17,168.21c-33.83-15.2-67.81-31.93-86.52-66-9.09-16.54-11.88-34.77-6.22-52.94,5.28-16.96,15.93-34.46,32.25-42.61,13.82-6.9,30.43-7.57,44.99-2.68,12.71,4.27,27.76,13.92,33.57,26.5,2.42,5.24,2.92,10.99.62,16.37-2.16,5.02-7.61,11.21-12.95,12.79-4.24,1.25-8.59.43-12.17-2.15-4.46-3.22-6.17-7.73-7.21-12.9,1.49-6.05,2.33-6.82,7.66-10.16l1.79-1.11-1.03-5.48c-1.3-1.41-2.65-3.52-4.5-4.06-9.92-2.9-21.74,1.55-30.43,6.3-11.42,6.24-19.86,13.37-23.47,26.23-4.87,17.39-1.73,35.32,7.14,50.83,15.82,27.64,45.4,40.5,74.78,48.48,65.97,17.93,156.57,17.17,217.05-18.32,16.54-9.71,31.44-27.48,36.18-46.26,4-15.83,2.33-33.68-6.35-47.74-6.19-10.03-15.57-17.36-27.2-19.83-7.74-1.64-18.96-2-25.75,2.36-1.07,9,8.38,14.35,9.42,22.94.39,3.17-.73,6.08-3.11,8.25-3.7,3.37-8.41,4.82-13.3,4.84-6-2.05-11.14-4.03-14.2-10.11-2.64-5.23-2.48-9.97-.62-15.38,4.65-13.53,16.96-25.64,29.73-31.67,12.95-6.11,28.19-6.08,41.5-1.08,16.1,6.05,29.29,19.14,36.21,34.81,7.39,16.74,6.72,35.24.14,52.13-16.2,41.53-49.82,58.89-87.75,75.75,36.48-1.11,72.81-4.03,109.36-4.56,68.27-.99,136.58.87,204.85-.64.04-1.54.04-3.03-.09-4.57-1.6-22.06-19.65-47.76-36.11-61.58-52.14-43.78-100.04-.95-146.75,25.83-32.35,18.54-63.35,33.63-100.76,36.87,21.36-9.84,41.7-20.38,60.2-35.08,15.72-12.49,30.32-26.89,46.8-38.33,27.49-19.07,61.92-29.55,95.29-23.23,29.31,5.55,56.87,25.11,73.34,49.83,8.36,12.55,20.52,35.05,17.32,50.57,90.22.62,180.45.78,270.68.48l531.49-.39,273.29-.11c46.37.23,111.14,4.05,155.52-.73,25.87-2.78,40.43-20.29,63.54-29.22,15.51-5.99,34.43-6.76,50.91-9.11,2.66,1.73,3.2,3.59,4.64,6.37.17,4.12-.8,6.64-3.28,9.93-15.36,20.2-51.66,32.9-76.33,36.28,4.41.76,8.79,1.66,13.15,2.7,22.96,5.55,47.32,14.25,59.61,36.1,2.63,4.7,3.09,7.05,1.68,12.14-7.24,1.02-15.14-.65-22.33-1.56-10.17-1.29-20.67-2.22-30.3-5.89-31.9-12.14-36.22-27.77-75.66-28.22-182.24-2.11-364.78.31-547.02.58l-668.98.17c.22.51.45,1.01.63,1.53,2.4,7.08-3.41,22.07-6.28,28.63-12.09,27.69-35.07,51.03-63.52,61.66-41.21,15.4-91.03,4.24-125.31-22.24-14.6-11.28-26.41-26.07-41.39-36.87-16.6-11.97-36.42-20.01-54.97-28.52,12.84.31,25.52,2.29,38.31,2.95,29.88,1.54,70.79-3.45,98.37,9.59,28.79,13.6,45.74,29.38,78.57,40.74-1.12.79-1.73,1.28-2.89,1.88-38.23,19.62-88.66-17.03-122-33-12.53-6-25.1-10.36-38.46-14.06,15.35,7.39,30.82,14.78,45.46,23.53,32.31,19.34,71.25,53.07,111.49,46.94,24.25-3.7,42.4-18.91,56.26-38.46,8.98-12.69,17.19-28.65,14.51-44.61-36.63-1.62-73.84.12-110.56-.29-68.42-.76-136.81-2.81-205.25-3,25.37,9.15,48.67,19.07,68,38.73,16,16.27,27.75,36.94,27.23,60.31-.01,1.11-.06,2.23-.13,3.34-.07,1.11-.17,2.22-.3,3.33-.12,1.11-.27,2.21-.45,3.31-.17,1.1-.38,2.19-.63,3.28-.23,1.09-.49,2.17-.78,3.25-.29,1.08-.6,2.14-.93,3.21-.35,1.06-.71,2.11-1.1,3.16-.39,1.04-.81,2.07-1.25,3.1-.44,1.02-.91,2.04-1.4,3.03-.49,1-1.01,1.99-1.55,2.96-.54.97-1.11,1.93-1.69,2.88-.59.95-1.2,1.88-1.83,2.79-.63.92-1.29,1.82-1.97,2.7-.68.88-1.38,1.75-2.1,2.6-.72.85-1.46,1.68-2.22,2.49-.76.81-1.54,1.61-2.34,2.38-10.65,10.13-24.96,16.34-39.77,15.78-15.58-.59-30.78-9.03-41.12-20.46-6.16-6.8-9.87-18.5-8.85-27.62.61-5.48,2.13-8.52,6.28-12.11,3.4-1.17,6.09-1.71,9.69-1.02,6.2,1.19,9.79,3.54,13.1,8.62.83,8.64-6.26,14.35-7.71,22.31-.69,3.8.7,5.14,2.57,8.26,2.29,1.34,3.63,1.81,6.34,1.85,12.6.18,26.93-5.25,36.02-13.95,9.74-9.32,14.49-22.61,14.8-35.92.44-18.7-7.46-37.64-20.41-51.05-31.41-32.54-96.68-43.1-139.97-44.09-48.88-1.12-118.1,4.58-155.24,40.74-13.95,13.58-24.01,34.25-24,53.96,0,14.38,8.66,29.63,18.69,39.44,6.45,6.3,15.94,12.94,25.42,12.25,6.23-.46,10.73-3.33,14.89-7.77,1.58-7.92-2.76-14.19-4.52-22.06,1.43-5.45,2.18-6.43,6.13-10.49,2.75-1.04,5.49-1.98,8.48-1.68,5.06.51,10.28,3.11,13.33,7.26,3.2,4.35,4.08,10.22,2.97,15.42-2.62,12.19-10.9,23.61-21.37,30.24-12.75,8.08-29.23,11.09-43.93,7.5-16.25-3.96-30.55-15.28-39.01-29.6-9.56-16.19-11.24-35.23-6.36-53.23,11.6-42.86,46.2-58.9,81.07-78.79-103.58,1.52-207.17,1.88-310.76,1.09,3.56,19.69,9.98,34.46,20.49,51.24,15.85,15.51,36.49,32.72,59.93,32.28,41.79-.78,80.82-32.82,117.53-50.18,26.89-12.72,54-21.6,83.38-26.26-13.92,10.79-31,15.9-45.72,25.32-50,31.98-84.04,73.66-150.5,64.69-28.27-3.82-56.68-20.34-73.8-43.36-.38-.51-.74-1.02-1.11-1.53-12.27-15.45-17.92-33.14-20.79-52.47l-1200.63-.61c-52.51.06-57.01,25.59-98.21,35.78-15.15,3.75-29.97,2.87-45.37,2,2.03-4.13,4.08-8.31,6.52-12.21,16.79-26.9,52.04-31.86,80.45-38.26-15.23-2.1-31.29-4.47-45.76-9.77-20.54-7.52-30.9-17.95-40.03-37.42,30.48-6,51.8-1.71,77.3,15.45,7.58,5.1,15.13,10.97,23.74,14.22l1.15.42c20.37,7.68,308.84,3.61,351.21,3.6l889.73-.36c2.04-14.91,5.37-29.59,12.23-43.09,12.44-24.5,37.34-44.66,63.5-52.72,69.21-21.31,118.82,25.75,170.1,61.94,14.07,9.93,29.37,18,44.52,26.13-34.96-4.74-65.88-16.99-96.66-34.05-26.75-14.83-53.48-35.95-84.53-39.97-22.85-2.96-47.12,2.84-65.35,17.12-21.39,16.76-29.93,38.75-33.18,64.81,106.46-.01,215.42-7.49,321.25,6.34Z"/>
</svg>